<svg id="f7bb3db6-0aca-42e3-bcc4-5e9b3a55e19d" data-name="Layer 1" xmlns="http://www.w3.org/2000/svg" width="879.5" height="581.35056" viewBox="0 0 879.5 581.35056">
<title>Mobile_application</title>
<rect x="21.67236" y="578.66157" width="857.82764" height="2" fill="#e6e8ec"/>
<path d="M713.725,293.08473v65.68a2.29614,2.29614,0,0,1-2.29,2.29h-1.62989v342.15a35.702,35.702,0,0,1-35.70007,35.7H460.31509a35.69346,35.69346,0,0,1-35.69006-35.7v-330.15h-1.18a1.6176,1.6176,0,0,1-1.62-1.61v-37.38a1.61971,1.61971,0,0,1,1.62-1.62h1.18v-14.08H423.435a1.69647,1.69647,0,0,1-1.68994-1.7v-36.87a1.69432,1.69432,0,0,1,1.68994-1.69H424.625v-19.22H423.415a1.498,1.498,0,0,1-1.5-1.5v-20.12a1.50661,1.50661,0,0,1,1.5-1.51H424.625v-40.74a35.69136,35.69136,0,0,1,35.69006-35.69H674.105a35.69991,35.69991,0,0,1,35.70007,35.69v95.78H711.435A2.29609,2.29609,0,0,1,713.725,293.08473Z" transform="translate(-160.25 -159.32472)" fill="#000"/>
<rect x="379.97864" y="18.3068" width="39.82343" height="8.08642" rx="2.54189" fill="#e6e8ec"/>
<circle cx="430.41006" cy="22.35" r="4.58665" fill="#e6e8ec"/>
<path d="M692.71,202.07524v504.09a22.58,22.58,0,0,1-7.96,17.23,22.6419,22.6419,0,0,1-14.69,5.41H465.41a22.58668,22.58668,0,0,1-10.46-2.55,21.15539,21.15539,0,0,1-2.2-1.3,22.66834,22.66834,0,0,1-9.99-18.79v-504.09a22.649,22.649,0,0,1,22.65-22.65h30.63v3.93a18.65015,18.65015,0,0,0,18.65,18.65H618.77a18.65009,18.65009,0,0,0,18.65-18.65v-3.93h32.64A22.64264,22.64264,0,0,1,692.71,202.07524Z" transform="translate(-160.25 -159.32472)" fill="#3f3d56"/>
<path d="M692.71,634.00524v72.16a22.58,22.58,0,0,1-7.96,17.23,22.6419,22.6419,0,0,1-14.69,5.41H465.41a22.58668,22.58668,0,0,1-10.46-2.55,21.15539,21.15539,0,0,1-2.2-1.3,22.66834,22.66834,0,0,1-9.99-18.79v-72.13a186.97056,186.97056,0,0,1,249.95-.03Z" transform="translate(-160.25 -159.32472)" fill="#fff" opacity="0.3"/>
<path d="M680.54,726.23528a22.40961,22.40961,0,0,1-10.48,2.57H465.41a22.58668,22.58668,0,0,1-10.46-2.55,122.16129,122.16129,0,0,1,225.59-.02Z" transform="translate(-160.25 -159.32472)" fill="#fff" opacity="0.3"/>
<path d="M636,727.44483A13.56058,13.56058,0,0,1,629.65831,729H505.81957a13.66765,13.66765,0,0,1-6.32958-1.5431A73.92279,73.92279,0,0,1,636,727.44483Z" transform="translate(-160.25 -159.32472)" fill="#fff" opacity="0.3"/>
<path d="M619.7959,374.5752c-20.52881,0-43.05811-3.90918-60.646-17.1001-24.4873-18.36524-54.65674-17.38526-75.65332-13.32813a164.86282,164.86282,0,0,0-40.27441,13.415l-.92481-1.77344a166.95707,166.95707,0,0,1,40.76758-13.59521c21.40918-4.14356,52.19678-5.13379,77.28516,13.68213,46.99951,35.24951,131.15771,3.59033,132.00146,3.26758l.7168,1.86718a242.3548,242.3548,0,0,1-48.70606,11.85694A186.20165,186.20165,0,0,1,619.7959,374.5752Z" transform="translate(-160.25 -159.32472)" fill="#fff"/>
<path d="M442.75,356.67528s69-16.71229,117,6.16983,133-.16983,133-.16983" transform="translate(-160.25 -159.32472)" fill="#fff" opacity="0.3"/>
<path d="M507.89111,382.63623a131.45576,131.45576,0,0,1-24.82617-2.479A166.95732,166.95732,0,0,1,442.29736,366.562l.92481-1.77344a164.86232,164.86232,0,0,0,40.27441,13.415c20.99561,4.05664,51.16553,5.03711,75.65332-13.32812,25.06641-18.79981,60.17725-18.74707,85.2124-15.39209a242.3552,242.3552,0,0,1,48.70606,11.85693l-.7168,1.86719c-.84472-.32373-85.001-31.9834-132.00146,3.26758C543.898,378.81445,524.99316,382.63623,507.89111,382.63623Z" transform="translate(-160.25 -159.32472)" fill="#fff" opacity="0.3"/>
<path d="M508.231,374.5835c-34.63428,0-65.39063-12.4253-65.852-12.61524l.76172-1.84961c.68457.28223,69.08837,27.89942,116.10009.06446,47.82471-28.31983,132.90576-3.041,133.75928-2.78223l-.58008,1.91406c-.84472-.25586-85.09277-25.28125-132.16064,2.58887C544.19678,371.415,525.71875,374.5835,508.231,374.5835Z" transform="translate(-160.25 -159.32472)" fill="#fff" opacity="0.3"/>
<path d="M442.76,359.50545s68.99,22.88212,116.99,0,132.96-2.16209,132.96-2.16209" transform="translate(-160.25 -159.32472)" fill="#fff" opacity="0.3"/>
<path d="M201.884,706.3411c12.42842,23.049,38.806,32.94351,38.806,32.94351s6.22712-27.47543-6.2013-50.52448-38.806-32.9435-38.806-32.9435S189.45559,683.29206,201.884,706.3411Z" transform="translate(-160.25 -159.32472)" fill="#3f3d56"/>
<path d="M442.76,356.67528s68.99-36,116.99,0,132.96,3.40157,132.96,3.40157" transform="translate(-160.25 -159.32472)" fill="#fff" opacity="0.3"/>
<circle cx="407.75" cy="552.67528" r="11" fill="#fff"/>
</svg>
